<?xml version="1.0" encoding="UTF-8" standalone="no"?>
<svg
   viewBox="0 0 2286.76 2500.03"
   width="2286.76"
   height="2500.03"
   version="1.1"
   id="svg8"
   sodipodi:docname="kucoin-brands.svg"
   inkscape:version="1.1 (c68e22c387, 2021-05-23)"
   xmlns:inkscape="http://www.inkscape.org/namespaces/inkscape"
   xmlns:sodipodi="http://sodipodi.sourceforge.net/DTD/sodipodi-0.dtd"
   xmlns="http://www.w3.org/2000/svg"
   xmlns:svg="http://www.w3.org/2000/svg"
   xmlns:rdf="http://www.w3.org/1999/02/22-rdf-syntax-ns#"
   xmlns:cc="http://creativecommons.org/ns#"
   xmlns:dc="http://purl.org/dc/elements/1.1/">
  <defs
     id="defs12" />
  <sodipodi:namedview
     id="namedview10"
     pagecolor="#505050"
     bordercolor="#ffffff"
     borderopacity="1"
     inkscape:pageshadow="0"
     inkscape:pageopacity="0"
     inkscape:pagecheckerboard="1"
     showgrid="false"
     inkscape:zoom="0.34919581"
     inkscape:cx="1144.0573"
     inkscape:cy="1250.015"
     inkscape:window-width="2560"
     inkscape:window-height="1377"
     inkscape:window-x="1912"
     inkscape:window-y="-8"
     inkscape:window-maximized="1"
     inkscape:current-layer="svg8" />
  <title
     id="title2">kcs</title>
  <path
     d="M1924.48 1522.23l-468.47 466.28-747.84-739.81 746.41-738.61 469.9 467.7c83.34 82.63 217.92 82.63 300.54-.72s82.26-217.92-.72-300.54L1606.62 61.74c-83.34-82.62-217.92-82.26-300.54.72-.34.34-15.07 12.57-21.65 19.12L425.02 931.75V423.61c0-117.25-95.25-212.5-212.51-212.5S.36 306.36 0 423.61v1651.4c0 117.26 95.25 212.51 212.51 212.51s212.51-95.29 212.51-212.51v-509.26l859.41 850.17c3.71 3.69 18.08 18.05 21.65 21.65 82.62 83 217.2 83.34 300.54.72l617.68-614.8c83-82.62 83.34-217.19.72-300.54-82.98-82.94-217.56-83.34-300.54-.72z"
     fill="#0097e8"
     id="path4"
     style="fill:#ffffff;fill-opacity:1" />
  <circle
     cx="1457.97"
     cy="1250.2"
     r="214.31"
     fill="#0097e8"
     id="circle6"
     style="fill:#ffffff;fill-opacity:1" />
  <metadata
     id="metadata829">
    <rdf:RDF>
      <cc:Work
         rdf:about="">
        <dc:title>kcs</dc:title>
      </cc:Work>
    </rdf:RDF>
  </metadata>
</svg>
