<?xml version="1.0" encoding="utf-8"?>
<!-- Generator: Adobe Illustrator 25.4.1, SVG Export Plug-In . SVG Version: 6.00 Build 0)  -->
<svg version="1.1" id="Layer_1" xmlns="http://www.w3.org/2000/svg" xmlns:xlink="http://www.w3.org/1999/xlink" x="0px" y="0px"
	 viewBox="0 0 512 512" style="enable-background:new 0 0 512 512;" xml:space="preserve">
<style type="text/css">
	.st0{fill:#FFFFFF;}
</style>
<g>
	<path class="st0" d="M289.2,255.5c0,80.2-64.5,145.2-144.2,145.2S0.8,335.7,0.8,255.5S65.4,110.4,145,110.4
		S289.2,175.4,289.2,255.5 M447.3,255.5c0,75.5-32.3,136.7-72.1,136.7s-72.1-61.2-72.1-136.7s32.3-136.7,72.1-136.7
		S447.3,180.1,447.3,255.5 M512,255.5c0,67.6-11.3,122.4-25.4,122.4c-14,0-25.3-54.8-25.3-122.4s11.3-122.4,25.3-122.4
		C500.6,133.1,512,187.9,512,255.5"/>
</g>
</svg>
