<?xml version="1.0" encoding="UTF-8" standalone="no"?>
<svg
   viewBox="0 0 800 800"
   width="2500"
   height="2500"
   version="1.1"
   id="svg6"
   sodipodi:docname="reddit-brands.svg"
   inkscape:version="1.1 (c68e22c387, 2021-05-23)"
   xmlns:inkscape="http://www.inkscape.org/namespaces/inkscape"
   xmlns:sodipodi="http://sodipodi.sourceforge.net/DTD/sodipodi-0.dtd"
   xmlns="http://www.w3.org/2000/svg"
   xmlns:svg="http://www.w3.org/2000/svg">
  <defs
     id="defs10" />
  <sodipodi:namedview
     id="namedview8"
     pagecolor="#505050"
     bordercolor="#ffffff"
     borderopacity="1"
     inkscape:pageshadow="0"
     inkscape:pageopacity="0"
     inkscape:pagecheckerboard="1"
     showgrid="false"
     inkscape:zoom="0.1746"
     inkscape:cx="919.24399"
     inkscape:cy="1709.622"
     inkscape:window-width="2560"
     inkscape:window-height="1377"
     inkscape:window-x="4472"
     inkscape:window-y="-8"
     inkscape:window-maximized="1"
     inkscape:current-layer="svg6" />
  <path
     id="circle2"
     style="fill:#ffffff;fill-opacity:1;stroke-width:3.125"
     d="M 1250,0 C 918.47939,0 600.537,131.69605 366.11652,366.11652 131.69605,600.537 0,918.47939 0,1250 0,1581.5206 131.69605,1899.463 366.11652,2133.8835 600.537,2368.3039 918.47939,2500 1250,2500 c 331.5206,0 649.463,-131.6961 883.8835,-366.1165 C 2368.3039,1899.463 2500,1581.5206 2500,1250 2500,918.47939 2368.3039,600.537 2133.8835,366.11652 1899.463,131.69605 1581.5206,0 1250,0 Z m 94.9023,499.10938 c 2.5508,0.0469 5.0977,0.34374 7.5977,0.89062 l 306.25,61.25 c 30.9062,-53.09375 95.7812,-75.84375 153.0625,-53.71875 57.2813,22.125 90.0313,82.59375 77.2187,142.65625 C 1876.25,710.25 1821.6875,752.125 1760.375,748.96875 1699.0312,745.8125 1649.0625,698.5625 1642.5,637.5 l -267.5,-56.25 -81.25,390 c 42.6875,0.90625 85.2812,4.90625 127.4062,11.9375 84.3578,14.06159 166.2439,40.2273 243.125,77.6875 38.3989,18.6873 75.401,40.1178 110.7188,64.125 25.3942,-24.3811 57.3036,-40.8893 91.875,-47.5312 34.5717,-6.6655 70.3337,-3.1816 102.9688,10.0312 32.6388,13.2063 60.7591,35.5745 80.9687,64.4062 20.2157,28.8341 31.655,62.9024 32.9375,98.0938 0.25,17.125 -1.875,34.2188 -6.375,50.75 -4.5,16.5312 -11.3125,32.375 -20.25,47 -8.9062,14.625 -19.8438,27.9375 -32.4688,39.5312 -12.625,11.5938 -26.8125,21.3438 -42.1562,28.9688 0.3438,4.5625 0.625,9.1562 0.7812,13.75 0.3762,9.1628 0.3762,18.3372 0,27.5 -0.1562,4.5938 -0.4374,9.1875 -0.7812,13.75 0,280 -326.25,507.5 -728.75,507.5 -402.5,0 -728.75,-227.5 -728.75,-507.5 -0.34375,-4.5625 -0.625,-9.1562 -0.78125,-13.75 -0.37616,-9.1628 -0.37616,-18.3372 0,-27.5 0.15625,-4.5938 0.4375,-9.1875 0.78125,-13.75 -48.65221,-22.3635 -85.03817,-64.9528 -99.53125,-116.5 -14.46921,-51.5708 -5.55713,-106.8943 24.375,-151.3125 29.90628,-44.4116 77.81939,-73.436 131.03125,-79.375 53.21792,-5.9649 106.37015,11.7449 145.375,48.4375 35.77603,-24.249 73.25925,-45.8784 112.15625,-64.7188 38.90625,-18.8124 79.125,-34.8124 120.34375,-47.8124 41.21875,-13.00005 83.3438,-22.9688 126,-29.87505 42.6562,-6.90625 85.7812,-10.6875 129,-11.34375 L 1306.25,530 c 1.0312,-5.03125 3.0625,-9.78125 5.9688,-14.03125 2.875,-4.21875 6.5937,-7.84375 10.875,-10.625 4.3124,-2.78125 9.125,-4.6875 14.1874,-5.625 2.5157,-0.45313 5.0704,-0.65625 7.6211,-0.60937 z M 956.00195,1250.0195 c -15.209,0.3269 -30.49609,3.4356 -45.0957,9.4805 -46.6875,19.375 -77.15625,64.9375 -77.15625,115.5 0,16.4062 3.21875,32.6562 9.5,47.8438 6.3125,15.1562 15.5,28.9374 27.125,40.5312 11.59375,11.625 25.375,20.8125 40.53125,27.125 15.1705,6.2739 31.42712,9.5019 47.84375,9.5 50.5625,0 96.125,-30.4688 115.5,-77.1562 19.3438,-46.7188 8.625,-100.4688 -27.125,-136.2188 -24.5781,-24.5781 -57.66323,-37.3246 -91.12305,-36.6055 z m 10.93555,413.6055 c -8.375,0.4062 -16.28125,3.9375 -22.21875,9.8438 -5.90625,5.9374 -9.4375,13.8437 -9.84375,22.2187 -0.40625,8.375 2.3125,16.5937 7.625,23.0625 21.96875,16.5625 45.3125,31.1875 69.7812,43.75 24.4688,12.5625 50,22.9688 76.25,31.1562 26.25,8.1876 53.1563,14.0938 80.4376,17.6876 27.2812,3.5624 54.8124,4.7812 82.2812,3.6562 27.4688,1.125 55,-0.094 82.2812,-3.6562 54.6412,-7.187 107.6413,-23.7086 156.6876,-48.8438 24.4687,-12.5625 47.8124,-27.1875 69.7812,-43.75 l -0.8125,4.1562 c 6.4063,-6.25 10.0625,-14.7812 10.1875,-23.7187 0.125,-8.9687 -3.3438,-17.5937 -9.5938,-24 -6.25,-6.4063 -14.7812,-10.0625 -23.7187,-10.1875 -8.9688,-0.125 -17.5938,3.3438 -24.8125,8.75 -18.7961,13.4819 -38.7006,25.3473 -59.5,35.4688 -20.8006,10.1268 -42.419,18.4793 -64.625,24.9687 -22.1875,6.4687 -44.9063,11.0625 -67.875,13.7187 -23,2.6563 -46.1562,3.3438 -69.25,2.0938 -23.0625,1.0313 -46.1875,0.094 -69.0938,-2.7812 -22.9117,-2.8465 -45.5365,-7.6558 -67.625,-14.375 -22.125,-6.6876 -43.5937,-15.25 -64.25,-25.5626 -20.6562,-10.3124 -40.4062,-22.375 -59.0312,-36.0312 -6.46875,-5.3125 -14.6875,-8.0313 -23.0625,-7.625 z m 566.6784,-411.1667 c -15.209,0.3269 -30.4961,3.4356 -45.0957,9.4805 -46.6875,19.375 -77.1563,64.9375 -77.1563,115.5 0,16.4062 3.2188,32.6562 9.5,47.8438 6.3125,15.1562 15.5,28.9374 27.125,40.5312 11.5938,11.625 25.375,20.8125 40.5313,27.125 15.1705,6.2739 31.4271,9.5019 47.8437,9.5 50.5626,0 96.1251,-30.4688 115.5001,-77.1562 19.3438,-46.7188 8.625,-100.4688 -27.125,-136.2188 -24.5781,-24.5781 -57.6633,-37.3246 -91.1231,-36.6055 z"
     transform="scale(0.32)"
     sodipodi:nodetypes="ssssssssssccsccccccccccccscsccccscccccccccsscccccsscscccccssscscssccccccssscccccccscsscscccccss" />
</svg>
