<?xml version="1.0" encoding="UTF-8" standalone="no"?>
<svg
   height="2500"
   width="2500"
   viewBox="0 0 2499.998 2499.4503"
   version="1.1"
   id="svg9"
   sodipodi:docname="soundcloud-brands.svg"
   inkscape:version="1.1 (c68e22c387, 2021-05-23)"
   xmlns:inkscape="http://www.inkscape.org/namespaces/inkscape"
   xmlns:sodipodi="http://sodipodi.sourceforge.net/DTD/sodipodi-0.dtd"
   xmlns="http://www.w3.org/2000/svg"
   xmlns:svg="http://www.w3.org/2000/svg">
  <defs
     id="defs13" />
  <sodipodi:namedview
     id="namedview11"
     pagecolor="#505050"
     bordercolor="#ffffff"
     borderopacity="1"
     inkscape:pageshadow="0"
     inkscape:pageopacity="0"
     inkscape:pagecheckerboard="1"
     showgrid="false"
     inkscape:zoom="0.2116"
     inkscape:cx="413.51607"
     inkscape:cy="465.50094"
     inkscape:window-width="2560"
     inkscape:window-height="1377"
     inkscape:window-x="4472"
     inkscape:window-y="-8"
     inkscape:window-maximized="1"
     inkscape:current-layer="svg9" />
  <linearGradient
     id="a"
     x1="0.50106996"
     x2="0.50106996"
     y1="0.027209999"
     y2="0.98003995">
    <stop
       offset="0"
       stop-color="#f80"
       id="stop2" />
    <stop
       offset="1"
       stop-color="#f30"
       id="stop4" />
  </linearGradient>
  <path
     d="m 0,1694.1147 c 0,31.0239 11.247,54.481 33.737,70.382 22.491,15.898 46.533,21.52 72.126,16.868 24.041,-4.653 40.91,-13.185 50.607,-25.593 9.693,-12.408 14.542,-32.962 14.542,-61.657 v -337.365 c 0,-24.0441 -8.336,-44.403 -25.012,-61.075 -16.672,-16.676 -37.03,-25.0121 -61.074,-25.0121 -23.267,0 -43.237,8.3361 -59.912,25.0121 C 8.339,1312.3467 0,1332.7047 0,1356.7497 Z m 267.566,144.253 c 0,22.495 7.95,39.3599 23.848,50.6079 15.9,11.2471 36.26,16.868 61.075,16.868 25.593,0 46.338,-5.6239 62.238,-16.868 15.898,-11.2449 23.849,-28.1129 23.849,-50.6079 v -786.41 c 0,-23.267 -8.34,-43.239 -25.012,-59.91205 -16.675,-16.672 -37.033,-25.011 -61.075,-25.011 -23.266,0 -43.239,8.339 -59.911,25.011 -16.676,16.67595 -25.012,36.64505 -25.012,59.91205 z m 266.403,37.227 c 0,22.492 8.143,39.36 24.43,50.607 16.286,11.2449 37.226,16.869 62.822,16.869 24.816,0 45.174,-5.6241 61.072,-16.869 15.9,-11.247 23.851,-28.115 23.851,-50.607 v -717.775 c 0,-24.041 -8.339,-44.595 -25.012,-61.657 -16.675,-17.061 -36.644,-25.59 -59.911,-25.59 -24.044,0 -44.595,8.529 -61.657,25.59 -17.061,17.062 -25.593,37.616 -25.593,61.657 v 717.775 z m 267.566,3.49 c 0,42.657 28.695,63.986 86.086,63.986 57.39,0 86.084,-21.329 86.084,-63.986 V 715.75465 c 0,-65.147 -19.776,-101.985 -59.33,-110.517 -25.593,-6.205 -50.8,1.163 -75.616,22.103 -24.818,20.94 -37.227,50.41 -37.227,88.413 V 1879.0846 Z m 272.222,33.737 V 647.11765 c 0,-40.328 12.02,-64.37 36.063,-72.127 51.96,-12.408 103.536,-18.613 154.723,-18.613 118.657,0 229.176,27.92 331.547,83.76 102.373,55.84 185.165,132.038 248.37,228.594 63.21,96.56 99.854,203.00105 109.936,319.33705 47.308,-20.165 97.717,-30.247 151.23,-30.247 108.578,0 201.452,38.39 278.618,115.17 77.168,76.782 115.754,169.072 115.754,276.875 0,108.578 -38.586,201.256 -115.754,278.036 -77.166,76.78 -169.651,115.17 -277.455,115.17 l -1012.097,-1.163 c -6.983,-2.327 -12.218,-6.594 -15.708,-12.797 -3.49,-6.203 -5.227,-11.638 -5.227,-16.291 z"
     fill="url(#a)"
     id="path7"
     style="fill:#ffffff;fill-opacity:1" />
</svg>
