<?xml version="1.0" encoding="UTF-8" standalone="no"?>
<svg
   viewBox="0 0 32 32"
   version="1.1"
   id="svg4"
   sodipodi:docname="website-brands.svg"
   inkscape:version="1.1 (c68e22c387, 2021-05-23)"
   xmlns:inkscape="http://www.inkscape.org/namespaces/inkscape"
   xmlns:sodipodi="http://sodipodi.sourceforge.net/DTD/sodipodi-0.dtd"
   xmlns="http://www.w3.org/2000/svg"
   xmlns:svg="http://www.w3.org/2000/svg">
  <defs
     id="defs8" />
  <sodipodi:namedview
     id="namedview6"
     pagecolor="#505050"
     bordercolor="#ffffff"
     borderopacity="1"
     inkscape:pageshadow="0"
     inkscape:pageopacity="0"
     inkscape:pagecheckerboard="1"
     showgrid="false"
     inkscape:zoom="27.28125"
     inkscape:cx="16"
     inkscape:cy="16"
     inkscape:window-width="2560"
     inkscape:window-height="1377"
     inkscape:window-x="4472"
     inkscape:window-y="-8"
     inkscape:window-maximized="1"
     inkscape:current-layer="svg4" />
  <path
     d="m 16,0.51775487 c -6.3657048,0 -11.8660243,3.71057813 -14.3709312,9.03130963 H 4.5938455 C 6.0129852,7.1557675 8.1947314,5.2482258 10.811641,4.1464061 9.9367024,5.6004469 9.2231795,7.4396086 8.7527682,9.5490645 H 11.511658 C 12.511776,5.6281859 14.317325,3.0981291 16,3.0981291 c 1.682675,0 3.488224,2.5300568 4.488342,6.4509354 h 2.75889 C 22.776821,7.4396086 22.063298,5.6004469 21.188359,4.1464061 c 2.61691,1.1018197 4.798656,3.0093614 6.217796,5.4026584 h 2.964776 C 27.866024,4.228333 22.365705,0.51775487 16,0.51775487 Z M 0.18785796,12.129439 2.1643757,19.870561 H 4.099716 c 0,0 1.3684091,-4.687572 1.4000334,-5.039793 h 0.041177 c 0.014494,0.319966 1.3588559,5.039793 1.3588559,5.039793 H 8.7527682 L 10.729286,12.129439 H 9.0410104 c 0,0 -1.1397919,4.633707 -1.1529687,4.918838 H 7.8468643 C 7.8112869,16.684444 6.5291858,12.129439 6.5291858,12.129439 h -1.811808 c 0,0 -1.510389,4.681766 -1.5235658,4.959156 C 3.174047,16.718312 2.0408434,12.129439 2.0408434,12.129439 Z m 10.54142804,0 1.976518,7.741122 h 1.93534 c 0,0 1.369727,-4.687572 1.400033,-5.039793 h 0.04118 c 0.01449,0.319966 1.358856,5.039793 1.358856,5.039793 h 1.852985 l 1.976518,-7.741122 H 19.58244 c 0,0 -1.139791,4.633707 -1.152968,4.918838 h -0.04118 c -0.03558,-0.363833 -1.317678,-4.918838 -1.317678,-4.918838 h -1.811808 c 0,0 -1.510389,4.681766 -1.523566,4.959156 -0.01976,-0.370283 -1.152969,-4.959156 -1.152969,-4.959156 z m 10.541428,0 1.976518,7.741122 h 1.93534 c 0,0 1.369727,-4.687572 1.400033,-5.039793 h 0.04118 c 0.01449,0.319966 1.358856,5.039793 1.358856,5.039793 h 1.852985 l 1.976518,-7.741122 h -1.688276 c 0,0 -1.139791,4.633707 -1.152968,4.918838 h -0.04118 c -0.03558,-0.363833 -1.317678,-4.918838 -1.317678,-4.918838 h -1.811808 c 0,0 -1.510389,4.681766 -1.523566,4.959156 -0.01976,-0.370283 -1.152969,-4.959156 -1.152969,-4.959156 z M 1.6290688,22.450935 C 4.1339757,27.771667 9.6342952,31.482245 16,31.482245 c 6.365705,0 11.866024,-3.710578 14.370931,-9.03131 h -2.964776 c -1.41914,2.393298 -3.600886,4.300839 -6.217796,5.402659 0.874939,-1.454041 1.588462,-3.293203 2.058873,-5.402659 h -2.75889 C 19.488224,26.371814 17.683993,28.901871 16,28.901871 c -1.683993,0 -3.488224,-2.530057 -4.488342,-6.450936 H 8.7527682 c 0.4704113,2.109456 1.1839342,3.948618 2.0588728,5.402659 -2.6169096,-1.10182 -4.7986558,-3.009361 -6.2177955,-5.402659 z"
     id="path2"
     style="fill:#ffffff;fill-opacity:1;stroke-width:1.30386" />
</svg>
